<svg width="195" height="31" viewBox="0 0 195 31" fill="none" xmlns="http://www.w3.org/2000/svg">
<path d="M16.1719 30L0 0H4.29688L18.6719 27.3438L33.0469 0H37.2852L21.1719 30H16.1719ZM42.4219 30V0H71.875V3.125H46.1719V13.125H70.8008V16.25H46.1719V26.875H72.4219V30H42.4219ZM77.4219 30V0H81.3281L111.465 25.3711H111.504V0H115.254V30H111.348L81.2109 4.41406H81.1719V30H77.4219ZM136.191 30.625C133.262 30.625 130.853 30.4232 128.965 30.0195C127.077 29.6289 125.599 28.8997 124.531 27.832C123.477 26.7643 122.734 25.2279 122.305 23.2227C121.888 21.2174 121.68 18.6068 121.68 15.3906V0H125.43V15.3906C125.43 17.6042 125.508 19.4401 125.664 20.8984C125.82 22.3568 126.113 23.5221 126.543 24.3945C126.973 25.2669 127.585 25.918 128.379 26.3477C129.186 26.7773 130.228 27.0573 131.504 27.1875C132.78 27.3177 134.342 27.3828 136.191 27.3828H143.262C145.124 27.3828 146.686 27.3177 147.949 27.1875C149.225 27.0573 150.26 26.7773 151.055 26.3477C151.862 25.918 152.48 25.2669 152.91 24.3945C153.34 23.5221 153.633 22.3568 153.789 20.8984C153.945 19.4401 154.023 17.6042 154.023 15.3906V0H157.773V15.3906C157.773 18.6068 157.559 21.2174 157.129 23.2227C156.712 25.2279 155.97 26.7643 154.902 27.832C153.848 28.8997 152.376 29.6289 150.488 30.0195C148.6 30.4232 146.191 30.625 143.262 30.625H136.191ZM164.18 30V0H193.633V3.125H167.93V13.125H192.559V16.25H167.93V26.875H194.18V30H164.18Z" fill="#F6FAFD"/>
</svg>
